<?xml version="1.0" standalone="no"?><!-- Generator: Gravit.io --><svg xmlns="http://www.w3.org/2000/svg" xmlns:xlink="http://www.w3.org/1999/xlink" style="isolation:isolate" viewBox="0 0 192.384 201.169" width="192.384" height="201.169"><defs><clipPath id="_clipPath_EDIwyh2RIcxWJ8Ao1ZatENI1ACfaDREm"><rect width="192.384" height="201.169"/></clipPath></defs><g clip-path="url(#_clipPath_EDIwyh2RIcxWJ8Ao1ZatENI1ACfaDREm)"><g id="Group"><path d=" M 47.612 183.609 L 23.806 141.817 L 0 100.025 L 24.29 58.513 L 48.58 17 L 96.676 17.28 L 144.772 17.559 L 168.578 59.352 L 192.384 101.144 L 168.094 142.656 L 143.804 184.169 L 95.708 183.889 L 47.612 183.609 Z  M 30.247 100.201 C 30.458 63.805 60.179 34.427 96.575 34.639 C 132.972 34.851 162.349 64.572 162.138 100.968 C 161.926 137.364 132.205 166.741 95.809 166.53 C 59.412 166.318 30.035 136.597 30.247 100.201 Z " fill-rule="evenodd" fill="rgb(0,0,0)"/><polygon points="38.386,133.875,96.705,34.206,153.862,134.547" fill="rgb(0,0,0)"/></g></g></svg>